<svg width="170" height="170" viewBox="0 0 170 170" fill="none" xmlns="http://www.w3.org/2000/svg">
<path d="M116.13 0.554849C106.834 3.63102 104.065 15.047 110.935 21.9172C118.215 29.2316 130.418 25.4718 132.605 15.2521C133.767 9.85172 130.759 3.8361 125.564 1.27262C122.761 -0.0945652 119.002 -0.402182 116.13 0.554849Z" fill="white"/>
<path d="M32.5269 4.07536C29.1431 8.0402 24.7339 14.1925 22.1021 18.5675C20.1197 21.9172 15.5054 31.009 15.7447 31.1798C15.813 31.2482 16.8384 31.5558 20.4615 32.5812C20.8375 32.6838 21.6578 31.3507 23.4351 27.6935C26.9214 20.55 32.1168 12.757 37.5855 6.53629C39.4654 4.38297 39.6705 3.3234 38.5425 1.85368C37.9957 1.17008 37.5513 0.965006 36.5259 0.965006C35.2613 0.965006 35.022 1.1359 32.5269 4.07536Z" fill="white"/>
<path d="M94.1871 8.99725C75.5592 11.2531 59.358 20.174 49.0358 33.9142C43.3277 41.5021 39.0553 51.2775 37.0729 61.1213C36.0817 66.1799 35.3981 71.7512 35.7399 72.6398C36.15 73.8703 36.9703 74.4514 38.235 74.4514C40.2858 74.4514 40.8668 73.5285 41.3111 69.3244C42.6783 56.7463 46.7457 46.0139 53.6158 36.9221C56.5211 33.0598 62.5709 27.3859 66.8434 24.549C75.525 18.7385 85.4713 15.3205 96.9215 14.2267L101.433 13.8166L101.638 11.7316C101.775 10.6037 101.946 9.40741 102.014 9.06561C102.185 8.55292 101.946 8.48456 100.032 8.51874C98.8356 8.55292 96.2037 8.758 94.1871 8.99725Z" fill="white"/>
<path d="M137.629 17.6105C137.322 18.7042 136.98 19.9005 136.878 20.2765C136.707 20.8576 137.322 21.2677 141.731 23.421C148.875 26.9074 156.668 32.1027 162.888 37.5714C165.042 39.4513 166.101 39.6564 167.571 38.5285C168.254 37.9816 168.46 37.5372 168.46 36.4777C168.46 35.2472 168.289 35.0079 165.52 32.6837C158.513 26.7023 152.053 22.4298 143.85 18.3283C140.945 16.8585 138.484 15.6622 138.381 15.6622C138.279 15.6622 137.937 16.5509 137.629 17.6105Z" fill="white"/>
<path d="M96.6821 35.7258C95.5542 36.1359 94.9731 36.9904 94.9731 38.2209C94.9731 40.2717 95.896 40.8527 100.1 41.2971C112.678 42.6642 123.206 46.6633 132.434 53.5676C136.365 56.507 142.073 62.5568 144.91 66.8976C150.754 75.6818 154.172 85.7307 155.198 97.0099L155.608 101.385L157.659 101.624C158.821 101.761 160.017 101.932 160.359 102C160.837 102.171 160.94 101.932 160.94 100.53C160.94 97.967 159.983 90.55 159.197 86.9269C157.112 77.1857 152.087 66.5558 146.14 59.2756C140.808 52.7473 134.553 47.6545 127.102 43.7238C122.317 41.2287 118.933 39.8615 113.772 38.3918C108.235 36.7853 98.0493 35.2131 96.6821 35.7258Z" fill="white"/>
<path d="M9.45562 37.0246C2.72223 38.8703 -1.4477 46.1847 0.466367 52.7814C3.23492 62.4201 14.8902 65.5304 21.9312 58.4894C26.6138 53.8068 26.9898 46.5265 22.8199 41.2628C19.8121 37.4689 14.2408 35.6916 9.45562 37.0246Z" fill="white"/>
<path d="M81.7798 60.4377C78.6353 60.882 76.9604 61.3947 73.9526 62.8303C65.5444 66.8976 60.3833 75.2375 60.3833 84.7053C60.3833 94.173 65.5103 102.479 73.9526 106.58C77.5073 108.323 80.686 109.041 84.7192 109.041C94.187 109.041 102.493 103.914 106.594 95.4719C108.337 91.9514 109.055 88.7385 109.055 84.7053C109.055 79.1681 107.38 74.1437 104.031 69.7346C99.0747 63.1721 89.9146 59.3439 81.7798 60.4377Z" fill="white"/>
<path d="M8.4986 68.88C8.4986 71.4435 9.45563 78.8605 10.2418 82.4835C12.4976 93.0109 17.8297 103.846 24.6314 111.707C33.5865 122.029 46.7115 129.446 61.2379 132.352C66.1939 133.343 71.7652 134.026 72.6539 133.685C73.8843 133.275 74.4654 132.454 74.4654 131.19C74.4654 129.139 73.5425 128.558 69.4068 128.113C57.4439 126.815 47.5318 123.226 38.4058 116.902C34.3043 114.066 27.605 107.161 24.6314 102.684C18.7525 93.8995 15.2662 83.7482 14.2408 72.4005L13.8306 68.0255L11.7798 67.7863C10.6177 67.6495 9.42145 67.4786 9.11383 67.4103C8.60114 67.2394 8.4986 67.4786 8.4986 68.88Z" fill="white"/>
<path d="M129.221 95.7111C128.674 96.3263 128.435 97.2492 128.128 100.018C126.829 111.981 123.24 121.893 116.917 131.019C114.045 135.189 107.175 141.854 102.698 144.793C93.6402 150.775 83.7623 154.158 72.4146 155.184L68.0396 155.594L67.6978 158.157C67.5269 159.593 67.4586 160.823 67.5269 160.892C67.8004 161.234 77.6441 160.174 81.4722 159.388C92.649 157.098 103.552 151.834 111.721 144.793C123.821 134.334 131.648 118.543 133.562 100.701C133.938 97.3175 133.87 96.5998 132.981 95.5402C132.229 94.6857 130.144 94.7541 129.221 95.7111Z" fill="white"/>
<path d="M154.104 107.298C147.371 108.631 142.791 115.228 143.884 121.995C145.491 132.078 157.659 136.317 165.212 129.446C173.142 122.2 169.348 109.246 158.718 107.298C156.462 106.888 156.257 106.888 154.104 107.298Z" fill="white"/>
<path d="M1.86774 130.882C1.18414 131.429 0.979065 131.873 0.979065 132.899C0.979065 134.163 1.14996 134.403 3.64508 136.522C7.37067 139.735 12.6685 143.631 16.941 146.331C20.4273 148.485 30.9888 153.987 31.1939 153.714C31.2281 153.646 31.5357 152.654 31.8775 151.527C32.1851 150.399 32.5269 149.237 32.5953 148.963C32.732 148.587 31.399 147.801 27.7076 145.989C20.5982 142.537 12.8052 137.308 6.55035 131.839C4.39703 129.959 3.33746 129.754 1.86774 130.882Z" fill="white"/>
<path d="M146.003 141.717C142.551 148.826 137.322 156.619 131.853 162.874C129.973 165.028 129.768 166.087 130.896 167.557C131.443 168.24 131.887 168.445 132.913 168.445C134.177 168.445 134.417 168.275 136.536 165.814C139.749 162.054 143.645 156.756 146.345 152.484C148.499 148.997 154.002 138.436 153.728 138.231C153.66 138.196 152.669 137.889 151.541 137.547C150.413 137.239 149.251 136.898 148.977 136.829C148.601 136.693 147.815 138.026 146.003 141.717Z" fill="white"/>
<path d="M47.19 143.87C42.5416 144.656 38.816 147.938 37.2437 152.654C35.6373 157.405 36.9703 162.498 40.7984 166.019C47.0533 171.795 57.068 169.949 60.9303 162.361C65.6812 152.962 57.6148 142.127 47.19 143.87Z" fill="white"/>
</svg>
